<mxfile host="Electron" modified="2024-03-27T10:57:36.834Z" agent="Mozilla/5.0 (Macintosh; Intel Mac OS X 10_15_7) AppleWebKit/537.36 (KHTML, like Gecko) draw.io/21.1.2 Chrome/106.0.5249.199 Electron/21.4.3 Safari/537.36" etag="NtvEJaIj8ADWrB-RKXrf" version="21.1.2" type="device">
  <diagram id="R2lEEEUBdFMjLlhIrx00" name="Page-1">
    <mxGraphModel dx="954" dy="674" grid="1" gridSize="10" guides="1" tooltips="1" connect="1" arrows="1" fold="1" page="1" pageScale="1" pageWidth="850" pageHeight="1100" math="0" shadow="0" extFonts="Permanent Marker^https://fonts.googleapis.com/css?family=Permanent+Marker">
      <root>
        <mxCell id="0" />
        <mxCell id="1" parent="0" />
        <mxCell id="fF_4sFfnxMTeJ3oYcodX-1" value="PERSON" style="rounded=1;arcSize=10;whiteSpace=wrap;html=1;align=center;fillColor=#fff2cc;strokeColor=#d6b656;" vertex="1" parent="1">
          <mxGeometry x="260" y="260" width="100" height="40" as="geometry" />
        </mxCell>
        <mxCell id="fF_4sFfnxMTeJ3oYcodX-9" value="" style="endArrow=none;html=1;rounded=0;entryX=0.5;entryY=0;entryDx=0;entryDy=0;" edge="1" parent="1" target="fF_4sFfnxMTeJ3oYcodX-1">
          <mxGeometry relative="1" as="geometry">
            <mxPoint x="310" y="230" as="sourcePoint" />
            <mxPoint x="500" y="350" as="targetPoint" />
          </mxGeometry>
        </mxCell>
        <mxCell id="fF_4sFfnxMTeJ3oYcodX-10" value="O" style="ellipse;whiteSpace=wrap;html=1;aspect=fixed;" vertex="1" parent="1">
          <mxGeometry x="295" y="200" width="30" height="30" as="geometry" />
        </mxCell>
        <mxCell id="fF_4sFfnxMTeJ3oYcodX-12" value="" style="endArrow=none;html=1;rounded=0;exitX=0;exitY=0;exitDx=0;exitDy=0;entryX=0.5;entryY=1;entryDx=0;entryDy=0;" edge="1" parent="1" source="fF_4sFfnxMTeJ3oYcodX-10" target="fF_4sFfnxMTeJ3oYcodX-14">
          <mxGeometry relative="1" as="geometry">
            <mxPoint x="340" y="350" as="sourcePoint" />
            <mxPoint x="260" y="160" as="targetPoint" />
          </mxGeometry>
        </mxCell>
        <mxCell id="fF_4sFfnxMTeJ3oYcodX-13" value="" style="endArrow=none;html=1;rounded=0;exitX=1;exitY=0;exitDx=0;exitDy=0;entryX=0.5;entryY=1;entryDx=0;entryDy=0;" edge="1" parent="1" source="fF_4sFfnxMTeJ3oYcodX-10" target="fF_4sFfnxMTeJ3oYcodX-15">
          <mxGeometry relative="1" as="geometry">
            <mxPoint x="309" y="214" as="sourcePoint" />
            <mxPoint x="350" y="160" as="targetPoint" />
          </mxGeometry>
        </mxCell>
        <mxCell id="fF_4sFfnxMTeJ3oYcodX-14" value="STUDENT" style="rounded=1;arcSize=10;whiteSpace=wrap;html=1;align=center;fillColor=#fff2cc;strokeColor=#d6b656;" vertex="1" parent="1">
          <mxGeometry x="195" y="120" width="100" height="40" as="geometry" />
        </mxCell>
        <mxCell id="fF_4sFfnxMTeJ3oYcodX-15" value="ALUMNI" style="rounded=1;arcSize=10;whiteSpace=wrap;html=1;align=center;fillColor=#fff2cc;strokeColor=#d6b656;" vertex="1" parent="1">
          <mxGeometry x="325" y="120" width="100" height="40" as="geometry" />
        </mxCell>
        <mxCell id="fF_4sFfnxMTeJ3oYcodX-16" value="chainid" style="ellipse;whiteSpace=wrap;html=1;align=center;fontStyle=4;fillColor=#f8cecc;strokeColor=#b85450;" vertex="1" parent="1">
          <mxGeometry x="160" y="240" width="80" height="30" as="geometry" />
        </mxCell>
        <mxCell id="fF_4sFfnxMTeJ3oYcodX-17" value="" style="endArrow=none;html=1;rounded=0;entryX=1;entryY=1;entryDx=0;entryDy=0;exitX=0;exitY=0.5;exitDx=0;exitDy=0;" edge="1" parent="1" source="fF_4sFfnxMTeJ3oYcodX-1" target="fF_4sFfnxMTeJ3oYcodX-16">
          <mxGeometry relative="1" as="geometry">
            <mxPoint x="320" y="240" as="sourcePoint" />
            <mxPoint x="320" y="270" as="targetPoint" />
          </mxGeometry>
        </mxCell>
        <mxCell id="fF_4sFfnxMTeJ3oYcodX-18" value="Wallet" style="ellipse;whiteSpace=wrap;html=1;align=center;fillColor=#dae8fc;strokeColor=#6c8ebf;" vertex="1" parent="1">
          <mxGeometry x="160" y="290" width="80" height="30" as="geometry" />
        </mxCell>
        <mxCell id="fF_4sFfnxMTeJ3oYcodX-19" value="" style="endArrow=none;html=1;rounded=0;entryX=1;entryY=0;entryDx=0;entryDy=0;exitX=0;exitY=0.5;exitDx=0;exitDy=0;" edge="1" parent="1" source="fF_4sFfnxMTeJ3oYcodX-1" target="fF_4sFfnxMTeJ3oYcodX-18">
          <mxGeometry relative="1" as="geometry">
            <mxPoint x="320" y="310" as="sourcePoint" />
            <mxPoint x="270" y="340" as="targetPoint" />
          </mxGeometry>
        </mxCell>
        <mxCell id="fF_4sFfnxMTeJ3oYcodX-20" value="" style="endArrow=none;html=1;rounded=0;exitX=0.5;exitY=1;exitDx=0;exitDy=0;entryX=0.5;entryY=0;entryDx=0;entryDy=0;" edge="1" parent="1" source="fF_4sFfnxMTeJ3oYcodX-1" target="fF_4sFfnxMTeJ3oYcodX-22">
          <mxGeometry relative="1" as="geometry">
            <mxPoint x="309.5" y="490" as="sourcePoint" />
            <mxPoint x="310" y="340" as="targetPoint" />
          </mxGeometry>
        </mxCell>
        <mxCell id="fF_4sFfnxMTeJ3oYcodX-21" value="1" style="resizable=0;html=1;whiteSpace=wrap;align=right;verticalAlign=bottom;" connectable="0" vertex="1" parent="fF_4sFfnxMTeJ3oYcodX-20">
          <mxGeometry x="1" relative="1" as="geometry" />
        </mxCell>
        <mxCell id="fF_4sFfnxMTeJ3oYcodX-22" value="has" style="shape=rhombus;perimeter=rhombusPerimeter;whiteSpace=wrap;html=1;align=center;fillColor=#ffe6cc;strokeColor=#d79b00;" vertex="1" parent="1">
          <mxGeometry x="265" y="350" width="90" height="50" as="geometry" />
        </mxCell>
        <mxCell id="fF_4sFfnxMTeJ3oYcodX-23" value="" style="endArrow=none;html=1;rounded=0;exitX=0.5;exitY=0;exitDx=0;exitDy=0;entryX=0.5;entryY=1;entryDx=0;entryDy=0;" edge="1" parent="1" source="fF_4sFfnxMTeJ3oYcodX-25" target="fF_4sFfnxMTeJ3oYcodX-22">
          <mxGeometry relative="1" as="geometry">
            <mxPoint x="309.5" y="440" as="sourcePoint" />
            <mxPoint x="309.5" y="490" as="targetPoint" />
          </mxGeometry>
        </mxCell>
        <mxCell id="fF_4sFfnxMTeJ3oYcodX-24" value="1" style="resizable=0;html=1;whiteSpace=wrap;align=right;verticalAlign=bottom;" connectable="0" vertex="1" parent="fF_4sFfnxMTeJ3oYcodX-23">
          <mxGeometry x="1" relative="1" as="geometry">
            <mxPoint x="10" y="20" as="offset" />
          </mxGeometry>
        </mxCell>
        <mxCell id="fF_4sFfnxMTeJ3oYcodX-25" value="CERTIFICATE" style="rounded=1;arcSize=10;whiteSpace=wrap;html=1;align=center;fillColor=#fff2cc;strokeColor=#d6b656;" vertex="1" parent="1">
          <mxGeometry x="260" y="450" width="100" height="40" as="geometry" />
        </mxCell>
        <mxCell id="fF_4sFfnxMTeJ3oYcodX-26" value="chainid" style="ellipse;whiteSpace=wrap;html=1;align=center;fontStyle=4;fillColor=#f8cecc;strokeColor=#b85450;" vertex="1" parent="1">
          <mxGeometry x="165" y="490" width="70" height="30" as="geometry" />
        </mxCell>
        <mxCell id="fF_4sFfnxMTeJ3oYcodX-27" value="" style="endArrow=none;html=1;rounded=0;entryX=1;entryY=0;entryDx=0;entryDy=0;exitX=0;exitY=0.5;exitDx=0;exitDy=0;" edge="1" parent="1" source="fF_4sFfnxMTeJ3oYcodX-25" target="fF_4sFfnxMTeJ3oYcodX-26">
          <mxGeometry relative="1" as="geometry">
            <mxPoint x="310" y="490" as="sourcePoint" />
            <mxPoint x="290" y="580" as="targetPoint" />
          </mxGeometry>
        </mxCell>
        <mxCell id="fF_4sFfnxMTeJ3oYcodX-30" value="" style="endArrow=none;html=1;rounded=0;exitX=0;exitY=0.5;exitDx=0;exitDy=0;entryX=0.5;entryY=0;entryDx=0;entryDy=0;" edge="1" parent="1" source="fF_4sFfnxMTeJ3oYcodX-25" target="fF_4sFfnxMTeJ3oYcodX-33">
          <mxGeometry relative="1" as="geometry">
            <mxPoint x="295" y="500" as="sourcePoint" />
            <mxPoint x="310" y="520" as="targetPoint" />
          </mxGeometry>
        </mxCell>
        <mxCell id="fF_4sFfnxMTeJ3oYcodX-31" value="" style="endArrow=none;html=1;rounded=0;exitX=0;exitY=0.5;exitDx=0;exitDy=0;entryX=0.72;entryY=0.963;entryDx=0;entryDy=0;entryPerimeter=0;" edge="1" parent="1" source="fF_4sFfnxMTeJ3oYcodX-25" target="fF_4sFfnxMTeJ3oYcodX-35">
          <mxGeometry relative="1" as="geometry">
            <mxPoint x="320" y="500" as="sourcePoint" />
            <mxPoint x="355.25126265847075" y="504.3933982822018" as="targetPoint" />
          </mxGeometry>
        </mxCell>
        <mxCell id="fF_4sFfnxMTeJ3oYcodX-33" value="uri" style="ellipse;whiteSpace=wrap;html=1;align=center;fillColor=#d0cee2;strokeColor=#56517e;" vertex="1" parent="1">
          <mxGeometry x="150" y="450" width="70" height="30" as="geometry" />
        </mxCell>
        <mxCell id="fF_4sFfnxMTeJ3oYcodX-35" value="crypto&lt;br&gt;signature" style="ellipse;whiteSpace=wrap;html=1;align=center;fillColor=#d0cee2;strokeColor=#56517e;" vertex="1" parent="1">
          <mxGeometry x="165" y="400" width="75" height="40" as="geometry" />
        </mxCell>
        <mxCell id="fF_4sFfnxMTeJ3oYcodX-37" value="" style="endArrow=none;html=1;rounded=0;entryX=0.5;entryY=0;entryDx=0;entryDy=0;" edge="1" parent="1" target="fF_4sFfnxMTeJ3oYcodX-39">
          <mxGeometry relative="1" as="geometry">
            <mxPoint x="305" y="490" as="sourcePoint" />
            <mxPoint x="305" y="530" as="targetPoint" />
          </mxGeometry>
        </mxCell>
        <mxCell id="fF_4sFfnxMTeJ3oYcodX-38" value="1" style="resizable=0;html=1;whiteSpace=wrap;align=right;verticalAlign=bottom;" connectable="0" vertex="1" parent="fF_4sFfnxMTeJ3oYcodX-37">
          <mxGeometry x="1" relative="1" as="geometry" />
        </mxCell>
        <mxCell id="fF_4sFfnxMTeJ3oYcodX-39" value="verify" style="shape=rhombus;perimeter=rhombusPerimeter;whiteSpace=wrap;html=1;align=center;fillColor=#ffe6cc;strokeColor=#d79b00;" vertex="1" parent="1">
          <mxGeometry x="260" y="540" width="90" height="50" as="geometry" />
        </mxCell>
        <mxCell id="fF_4sFfnxMTeJ3oYcodX-40" value="" style="endArrow=none;html=1;rounded=0;exitX=0.5;exitY=0;exitDx=0;exitDy=0;entryX=0.5;entryY=1;entryDx=0;entryDy=0;" edge="1" parent="1" target="fF_4sFfnxMTeJ3oYcodX-39">
          <mxGeometry relative="1" as="geometry">
            <mxPoint x="305" y="640" as="sourcePoint" />
            <mxPoint x="304.5" y="680" as="targetPoint" />
          </mxGeometry>
        </mxCell>
        <mxCell id="fF_4sFfnxMTeJ3oYcodX-41" value="1" style="resizable=0;html=1;whiteSpace=wrap;align=right;verticalAlign=bottom;" connectable="0" vertex="1" parent="fF_4sFfnxMTeJ3oYcodX-40">
          <mxGeometry x="1" relative="1" as="geometry">
            <mxPoint x="10" y="20" as="offset" />
          </mxGeometry>
        </mxCell>
        <mxCell id="fF_4sFfnxMTeJ3oYcodX-42" value="THIRD-PARTY" style="rounded=1;arcSize=10;whiteSpace=wrap;html=1;align=center;fillColor=#fff2cc;strokeColor=#d6b656;" vertex="1" parent="1">
          <mxGeometry x="255" y="640" width="100" height="40" as="geometry" />
        </mxCell>
        <mxCell id="fF_4sFfnxMTeJ3oYcodX-43" value="id" style="ellipse;whiteSpace=wrap;html=1;align=center;fontStyle=4;fillColor=#f8cecc;strokeColor=#b85450;" vertex="1" parent="1">
          <mxGeometry x="270" y="700" width="70" height="30" as="geometry" />
        </mxCell>
        <mxCell id="fF_4sFfnxMTeJ3oYcodX-44" value="" style="endArrow=none;html=1;rounded=0;entryX=0.5;entryY=0;entryDx=0;entryDy=0;exitX=0.5;exitY=1;exitDx=0;exitDy=0;" edge="1" parent="1" source="fF_4sFfnxMTeJ3oYcodX-42" target="fF_4sFfnxMTeJ3oYcodX-43">
          <mxGeometry relative="1" as="geometry">
            <mxPoint x="270" y="480" as="sourcePoint" />
            <mxPoint x="235" y="504" as="targetPoint" />
          </mxGeometry>
        </mxCell>
        <mxCell id="fF_4sFfnxMTeJ3oYcodX-45" value="" style="endArrow=none;html=1;rounded=0;exitX=1;exitY=0.5;exitDx=0;exitDy=0;" edge="1" parent="1" source="fF_4sFfnxMTeJ3oYcodX-25">
          <mxGeometry relative="1" as="geometry">
            <mxPoint x="315" y="500" as="sourcePoint" />
            <mxPoint x="440" y="470" as="targetPoint" />
          </mxGeometry>
        </mxCell>
        <mxCell id="fF_4sFfnxMTeJ3oYcodX-46" value="N" style="resizable=0;html=1;whiteSpace=wrap;align=right;verticalAlign=bottom;" connectable="0" vertex="1" parent="fF_4sFfnxMTeJ3oYcodX-45">
          <mxGeometry x="1" relative="1" as="geometry" />
        </mxCell>
        <mxCell id="fF_4sFfnxMTeJ3oYcodX-47" value="regist" style="shape=rhombus;perimeter=rhombusPerimeter;whiteSpace=wrap;html=1;align=center;fillColor=#ffe6cc;strokeColor=#d79b00;" vertex="1" parent="1">
          <mxGeometry x="440" y="445" width="90" height="50" as="geometry" />
        </mxCell>
        <mxCell id="fF_4sFfnxMTeJ3oYcodX-48" value="" style="endArrow=none;html=1;rounded=0;entryX=1;entryY=0.5;entryDx=0;entryDy=0;" edge="1" parent="1" target="fF_4sFfnxMTeJ3oYcodX-47">
          <mxGeometry relative="1" as="geometry">
            <mxPoint x="610" y="470" as="sourcePoint" />
            <mxPoint x="315" y="600" as="targetPoint" />
          </mxGeometry>
        </mxCell>
        <mxCell id="fF_4sFfnxMTeJ3oYcodX-49" value="1" style="resizable=0;html=1;whiteSpace=wrap;align=right;verticalAlign=bottom;" connectable="0" vertex="1" parent="fF_4sFfnxMTeJ3oYcodX-48">
          <mxGeometry x="1" relative="1" as="geometry">
            <mxPoint x="10" as="offset" />
          </mxGeometry>
        </mxCell>
        <mxCell id="fF_4sFfnxMTeJ3oYcodX-50" value="ADMIN" style="rounded=1;arcSize=10;whiteSpace=wrap;html=1;align=center;fillColor=#fff2cc;strokeColor=#d6b656;" vertex="1" parent="1">
          <mxGeometry x="610" y="450" width="100" height="40" as="geometry" />
        </mxCell>
        <mxCell id="fF_4sFfnxMTeJ3oYcodX-51" value="chainid" style="ellipse;whiteSpace=wrap;html=1;align=center;fontStyle=4;fillColor=#f8cecc;strokeColor=#b85450;" vertex="1" parent="1">
          <mxGeometry x="580" y="390" width="70" height="30" as="geometry" />
        </mxCell>
        <mxCell id="fF_4sFfnxMTeJ3oYcodX-52" value="wallet" style="ellipse;whiteSpace=wrap;html=1;align=center;fillColor=#b1ddf0;strokeColor=#10739e;" vertex="1" parent="1">
          <mxGeometry x="660" y="390" width="70" height="30" as="geometry" />
        </mxCell>
        <mxCell id="fF_4sFfnxMTeJ3oYcodX-53" value="" style="endArrow=none;html=1;rounded=0;entryX=0.5;entryY=0;entryDx=0;entryDy=0;exitX=0.5;exitY=1;exitDx=0;exitDy=0;" edge="1" parent="1" source="fF_4sFfnxMTeJ3oYcodX-51" target="fF_4sFfnxMTeJ3oYcodX-50">
          <mxGeometry relative="1" as="geometry">
            <mxPoint x="270" y="480" as="sourcePoint" />
            <mxPoint x="235" y="504" as="targetPoint" />
          </mxGeometry>
        </mxCell>
        <mxCell id="fF_4sFfnxMTeJ3oYcodX-54" value="" style="endArrow=none;html=1;rounded=0;exitX=0.5;exitY=1;exitDx=0;exitDy=0;entryX=0.5;entryY=0;entryDx=0;entryDy=0;" edge="1" parent="1" source="fF_4sFfnxMTeJ3oYcodX-52" target="fF_4sFfnxMTeJ3oYcodX-50">
          <mxGeometry relative="1" as="geometry">
            <mxPoint x="270" y="480" as="sourcePoint" />
            <mxPoint x="229" y="449" as="targetPoint" />
          </mxGeometry>
        </mxCell>
        <mxCell id="fF_4sFfnxMTeJ3oYcodX-55" value="RI1" style="text;strokeColor=none;fillColor=none;spacingLeft=4;spacingRight=4;overflow=hidden;rotatable=0;points=[[0,0.5],[1,0.5]];portConstraint=eastwest;fontSize=12;whiteSpace=wrap;html=1;" vertex="1" parent="1">
          <mxGeometry x="710" y="370" width="40" height="30" as="geometry" />
        </mxCell>
        <mxCell id="fF_4sFfnxMTeJ3oYcodX-56" value="" style="shape=rhombus;perimeter=rhombusPerimeter;whiteSpace=wrap;html=1;align=center;direction=west;fillColor=#ffe6cc;strokeColor=#d79b00;" vertex="1" parent="1">
          <mxGeometry x="440" y="560" width="90" height="50" as="geometry" />
        </mxCell>
        <mxCell id="fF_4sFfnxMTeJ3oYcodX-57" value="CLAIMS" style="rounded=1;arcSize=10;whiteSpace=wrap;html=1;align=center;fillColor=#fff2cc;strokeColor=#d6b656;" vertex="1" parent="1">
          <mxGeometry x="610" y="640" width="100" height="40" as="geometry" />
        </mxCell>
        <mxCell id="fF_4sFfnxMTeJ3oYcodX-58" value="&lt;u&gt;curso&lt;/u&gt;" style="ellipse;whiteSpace=wrap;html=1;align=center;fillColor=#f8cecc;strokeColor=#b85450;" vertex="1" parent="1">
          <mxGeometry x="590" y="710" width="70" height="30" as="geometry" />
        </mxCell>
        <mxCell id="fF_4sFfnxMTeJ3oYcodX-59" value="&lt;u&gt;país&lt;/u&gt;" style="ellipse;whiteSpace=wrap;html=1;align=center;fillColor=#f8cecc;strokeColor=#b85450;" vertex="1" parent="1">
          <mxGeometry x="670" y="710" width="70" height="30" as="geometry" />
        </mxCell>
        <mxCell id="fF_4sFfnxMTeJ3oYcodX-60" value="" style="endArrow=none;html=1;rounded=0;entryX=0.5;entryY=1;entryDx=0;entryDy=0;exitX=0.5;exitY=0;exitDx=0;exitDy=0;" edge="1" parent="1" source="fF_4sFfnxMTeJ3oYcodX-58" target="fF_4sFfnxMTeJ3oYcodX-57">
          <mxGeometry relative="1" as="geometry">
            <mxPoint x="625" y="430" as="sourcePoint" />
            <mxPoint x="670" y="460" as="targetPoint" />
          </mxGeometry>
        </mxCell>
        <mxCell id="fF_4sFfnxMTeJ3oYcodX-61" value="" style="endArrow=none;html=1;rounded=0;exitX=0.5;exitY=0;exitDx=0;exitDy=0;entryX=0.5;entryY=1;entryDx=0;entryDy=0;" edge="1" parent="1" source="fF_4sFfnxMTeJ3oYcodX-59" target="fF_4sFfnxMTeJ3oYcodX-57">
          <mxGeometry relative="1" as="geometry">
            <mxPoint x="705" y="430" as="sourcePoint" />
            <mxPoint x="670" y="460" as="targetPoint" />
          </mxGeometry>
        </mxCell>
        <mxCell id="fF_4sFfnxMTeJ3oYcodX-65" value="&lt;u&gt;codigo&lt;/u&gt;" style="ellipse;whiteSpace=wrap;html=1;align=center;fillColor=#bac8d3;strokeColor=#23445d;" vertex="1" parent="1">
          <mxGeometry x="530" y="750" width="60" height="30" as="geometry" />
        </mxCell>
        <mxCell id="fF_4sFfnxMTeJ3oYcodX-66" value="nivel" style="ellipse;whiteSpace=wrap;html=1;align=center;fillColor=#bac8d3;strokeColor=#23445d;" vertex="1" parent="1">
          <mxGeometry x="510" y="710" width="60" height="30" as="geometry" />
        </mxCell>
        <mxCell id="fF_4sFfnxMTeJ3oYcodX-67" value="nome" style="ellipse;whiteSpace=wrap;html=1;align=center;fillColor=#bac8d3;strokeColor=#23445d;" vertex="1" parent="1">
          <mxGeometry x="600" y="760" width="60" height="30" as="geometry" />
        </mxCell>
        <mxCell id="fF_4sFfnxMTeJ3oYcodX-68" value="" style="endArrow=none;html=1;rounded=0;entryX=0;entryY=1;entryDx=0;entryDy=0;exitX=1;exitY=1;exitDx=0;exitDy=0;" edge="1" parent="1" source="fF_4sFfnxMTeJ3oYcodX-66" target="fF_4sFfnxMTeJ3oYcodX-58">
          <mxGeometry relative="1" as="geometry">
            <mxPoint x="635" y="720" as="sourcePoint" />
            <mxPoint x="670" y="690" as="targetPoint" />
          </mxGeometry>
        </mxCell>
        <mxCell id="fF_4sFfnxMTeJ3oYcodX-69" value="" style="endArrow=none;html=1;rounded=0;entryX=0;entryY=1;entryDx=0;entryDy=0;exitX=1;exitY=0;exitDx=0;exitDy=0;" edge="1" parent="1" source="fF_4sFfnxMTeJ3oYcodX-65" target="fF_4sFfnxMTeJ3oYcodX-58">
          <mxGeometry relative="1" as="geometry">
            <mxPoint x="571" y="746" as="sourcePoint" />
            <mxPoint x="610" y="746" as="targetPoint" />
          </mxGeometry>
        </mxCell>
        <mxCell id="fF_4sFfnxMTeJ3oYcodX-70" value="" style="endArrow=none;html=1;rounded=0;entryX=0;entryY=1;entryDx=0;entryDy=0;exitX=0.5;exitY=0;exitDx=0;exitDy=0;" edge="1" parent="1" source="fF_4sFfnxMTeJ3oYcodX-67" target="fF_4sFfnxMTeJ3oYcodX-58">
          <mxGeometry relative="1" as="geometry">
            <mxPoint x="591" y="764" as="sourcePoint" />
            <mxPoint x="610" y="746" as="targetPoint" />
          </mxGeometry>
        </mxCell>
        <mxCell id="fF_4sFfnxMTeJ3oYcodX-71" value="" style="endArrow=none;html=1;rounded=0;exitX=1;exitY=1;exitDx=0;exitDy=0;entryX=1;entryY=1;entryDx=0;entryDy=0;" edge="1" parent="1" source="fF_4sFfnxMTeJ3oYcodX-25" target="fF_4sFfnxMTeJ3oYcodX-56">
          <mxGeometry relative="1" as="geometry">
            <mxPoint x="370" y="480" as="sourcePoint" />
            <mxPoint x="450" y="480" as="targetPoint" />
          </mxGeometry>
        </mxCell>
        <mxCell id="fF_4sFfnxMTeJ3oYcodX-72" value="N" style="resizable=0;html=1;whiteSpace=wrap;align=right;verticalAlign=bottom;" connectable="0" vertex="1" parent="fF_4sFfnxMTeJ3oYcodX-71">
          <mxGeometry x="1" relative="1" as="geometry" />
        </mxCell>
        <mxCell id="fF_4sFfnxMTeJ3oYcodX-73" value="" style="endArrow=none;html=1;rounded=0;exitX=1;exitY=0.5;exitDx=0;exitDy=0;entryX=1;entryY=0;entryDx=0;entryDy=0;" edge="1" parent="1" source="fF_4sFfnxMTeJ3oYcodX-42" target="fF_4sFfnxMTeJ3oYcodX-56">
          <mxGeometry relative="1" as="geometry">
            <mxPoint x="370" y="500" as="sourcePoint" />
            <mxPoint x="473" y="573" as="targetPoint" />
          </mxGeometry>
        </mxCell>
        <mxCell id="fF_4sFfnxMTeJ3oYcodX-74" value="N" style="resizable=0;html=1;whiteSpace=wrap;align=right;verticalAlign=bottom;" connectable="0" vertex="1" parent="fF_4sFfnxMTeJ3oYcodX-73">
          <mxGeometry x="1" relative="1" as="geometry">
            <mxPoint x="-13" y="13" as="offset" />
          </mxGeometry>
        </mxCell>
        <mxCell id="fF_4sFfnxMTeJ3oYcodX-75" value="" style="endArrow=none;html=1;rounded=0;exitX=0;exitY=1;exitDx=0;exitDy=0;entryX=0;entryY=1;entryDx=0;entryDy=0;" edge="1" parent="1" source="fF_4sFfnxMTeJ3oYcodX-50" target="fF_4sFfnxMTeJ3oYcodX-56">
          <mxGeometry relative="1" as="geometry">
            <mxPoint x="370" y="500" as="sourcePoint" />
            <mxPoint x="473" y="573" as="targetPoint" />
          </mxGeometry>
        </mxCell>
        <mxCell id="fF_4sFfnxMTeJ3oYcodX-76" value="N" style="resizable=0;html=1;whiteSpace=wrap;align=right;verticalAlign=bottom;" connectable="0" vertex="1" parent="fF_4sFfnxMTeJ3oYcodX-75">
          <mxGeometry x="1" relative="1" as="geometry">
            <mxPoint x="13" y="-3" as="offset" />
          </mxGeometry>
        </mxCell>
        <mxCell id="fF_4sFfnxMTeJ3oYcodX-79" value="" style="endArrow=none;html=1;rounded=0;exitX=0;exitY=0.5;exitDx=0;exitDy=0;entryX=0;entryY=0;entryDx=0;entryDy=0;" edge="1" parent="1" source="fF_4sFfnxMTeJ3oYcodX-57" target="fF_4sFfnxMTeJ3oYcodX-56">
          <mxGeometry relative="1" as="geometry">
            <mxPoint x="670" y="500" as="sourcePoint" />
            <mxPoint x="518" y="573" as="targetPoint" />
          </mxGeometry>
        </mxCell>
        <mxCell id="fF_4sFfnxMTeJ3oYcodX-80" value="N" style="resizable=0;html=1;whiteSpace=wrap;align=right;verticalAlign=bottom;" connectable="0" vertex="1" parent="fF_4sFfnxMTeJ3oYcodX-79">
          <mxGeometry x="1" relative="1" as="geometry">
            <mxPoint x="23" y="13" as="offset" />
          </mxGeometry>
        </mxCell>
      </root>
    </mxGraphModel>
  </diagram>
</mxfile>
